<svg xmlns="http://www.w3.org/2000/svg" viewBox="0 0 1306.77 326.73">
  <defs>
    <style>.developer-designer-hands-1,.developer-designer-hands-4{fill:#fff;}.developer-designer-hands-2,.developer-designer-hands-3,.developer-designer-hands-5{fill:none;}.developer-designer-hands-3,.developer-designer-hands-4{stroke:#000;stroke-linecap:round;stroke-width:2.4px;}.developer-designer-hands-3,.developer-designer-hands-4,.developer-designer-hands-5{stroke-miterlimit:10;}.developer-designer-hands-5{stroke:#333;stroke-width:2px;}.developer-designer-hands-6{fill:#161616;}</style>
  </defs>
  <title>Asset 4</title>
  <g id="Layer_2" data-name="Layer 2">
    <g id="Layer_1-2" data-name="Layer 1">
      <path class="developer-designer-hands-1" d="M438.48,114.23c-7.88.53-10.91,5.34-18.84,4.63-.93-.08-1.88-.15-2.86-.2h0l-16.19-11.78c3.18,1.23,5.85,1.31,7.37-.64-.14.17-9.11-3.37-11.15-4.91-5.41-4.15-9.94-9.9-15.57-13.79,6.08-1.05,11.79-7.86,15-12.72,1.82-2.77,7.47-11.46,7.47-15-.07-6.69-4.34,4.43-5.22,6.38A50.77,50.77,0,0,1,387,81.69c-3.3,2.9-6.48,3.62-10.95,2.38-8.64-2.41-2.93-7.58-1.35-12.65,1.15-3.7-.73-17.92-5.38-18.56-1.91-.26,1.16,5.51,1.74,7.68,1.54,5.79,2.15,9.91-4.66,19.12a1.92,1.92,0,0,0-.08,2.33L303.82,35.86a21.19,21.19,0,0,1,6.61-2.15c6.13-1.05,19.09-.29,19.07-.29A155.74,155.74,0,0,1,358.36,37c9.25,1.86,17.32,2.92,25.09,2.74,28.57-.63,24.2,22.17,37.71,41,5.76,8,13.14,22,13.14,22A69.45,69.45,0,0,1,438.48,114.23Z" />
      <path class="developer-designer-hands-1" d="M378.55,227.47c-2.24,1.37-10.2.91-11.77-1,3.83-2.21,7.73-4.3,11.52-6.59C380,222,381.32,225.8,378.55,227.47Z" />
      <path class="developer-designer-hands-1" d="M390.22,226.88c-2.86-.7-9-4.25-9.17-7.85-.1-2.13,15-11.13,17.61-12.88,1,2,2.54,4.42,3.55,6.5h.05C406.5,221.4,401.89,229.71,390.22,226.88Z" />
      <path class="developer-designer-hands-1" d="M443.4,186.82c.13,6.37-4.66,11.39-12.09,12.09-8.24.77-14.2-5.58-15.31-9.95,6.75-5.94,15.31-10.35,22.88-16.36C439.38,174,443.3,182.3,443.4,186.82Z" />
      <path class="developer-designer-hands-1" d="M444.75,165.26c1.53-1.61,5.32-6.2,3.43-7.08-2.37-1.09-9,8.87-9.9,10-7.79,9.26-17.41,11-25.2,19.53-7.05,7.72-22.31,21.89-34.46,29.12-9.93,5.91-13.11,8.67-23.67,13S335.73,237.1,325,241.61c-8.89,3.76-19,9.24-26.19,15.74-14.4,13.06-22.39,32.11-32,48.86q-5.91,10.26-11.54,20.52h-145q3.48-4.25,7-8.42a295,295,0,0,0,36.81-54.13c2.85-5.43,9.47-19.17,22.8-29.37,16.32-12.49,23.59-35,31.7-53.72,8-18.48,11.47-30.66,20.54-48.29,9.27-18,14.78-36.56,22-55.73,5.06-13.56,9.74-21,16.55-23.69,6.09-2.43,9.67-2,14.06-5.22l76.85,52.4c-.48,4.34,9.75,13.93,11.35,15.06,4.6,3.27,11.68,4.68,17.15,5.28.89.1,1.8.17,2.7.22,7.33.42,14.83-.58,22.14,0,4.55.36,9,1.52,13.62,1.4,7.08-.2,2.92-2.24,6.61-3.84,13.73-5.94,36.89.43,38.35,18.6C471.68,152,457.12,160.72,444.75,165.26Z" />
      <path class="developer-designer-hands-2" d="M0,0V326.73H110.24q3.48-4.25,7-8.42a295,295,0,0,0,36.81-54.13c2.85-5.43,9.47-19.17,22.8-29.37,16.32-12.49,23.59-35,31.7-53.72,8-18.48,11.47-30.66,20.54-48.29,9.27-18,14.78-36.56,22-55.73,5.06-13.56,9.74-21,16.55-23.69,6.09-2.43,9.67-2,14.06-5.22l-.07,0-36.73-25-.08-.06a11.86,11.86,0,1,1,12.92-19.9c.24.16.47.32.7.5l.13.09,42.59,30.94.34.24L306,38.13,366.35,82,303.82,35.86a21.19,21.19,0,0,1,6.61-2.15c6.13-1.05,19.09-.29,19.07-.29A155.74,155.74,0,0,1,358.36,37c9.25,1.86,17.32,2.92,25.09,2.74,28.57-.63,24.2,22.17,37.71,41,5.76,8,13.14,22,13.14,22a69.45,69.45,0,0,1,4.18,11.54c-7.88.53-10.91,5.34-18.84,4.63-.93-.08-1.88-.15-2.86-.2h0c-10.5-.57-22.68.42-32.16-1.07l-24.17-16.48-.14-.11-1.57-1.06a2,2,0,0,0-.15.62c-.48,4.34,9.75,13.93,11.35,15.06,4.6,3.27,11.68,4.68,17.15,5.28.89.1,1.8.17,2.7.22,7.33.42,14.83-.58,22.14,0,4.55.36,9,1.52,13.62,1.4,7.08-.2,2.92-2.24,6.61-3.84,13.73-5.94,36.89.43,38.35,18.6,1.18,14.68-13.38,23.44-25.75,28,1.53-1.61,5.32-6.2,3.43-7.08-2.37-1.09-9,8.87-9.9,10-7.79,9.26-17.41,11-25.2,19.53-7.05,7.72-22.31,21.89-34.46,29.12-9.93,5.91-13.11,8.67-23.67,13S335.73,237.1,325,241.61c-8.89,3.76-19,9.24-26.19,15.74-14.4,13.06-22.39,32.11-32,48.86q-5.91,10.26-11.54,20.52H1306.77V0ZM438.88,172.6c.5,1.43,4.42,9.7,4.52,14.22.13,6.37-4.66,11.39-12.09,12.09-8.24.77-14.2-5.58-15.31-9.95C422.75,183,431.31,178.61,438.88,172.6Zm-40.22,33.55c1,2,2.54,4.42,3.55,6.5h.05c4.24,8.75-.37,17.06-12,14.23-2.86-.7-9-4.25-9.17-7.85C381,216.9,396,207.9,398.66,206.15ZM378.3,219.84c1.73,2.16,3,6,.25,7.63-2.24,1.37-10.2.91-11.77-1C370.61,224.22,374.51,222.13,378.3,219.84Zm100.14-46.66a.81.81,0,0,1-.68.36h-.07a.78.78,0,0,0,.59-.35.84.84,0,0,0,.16-.48.87.87,0,0,0-.24-.52l0-.05L472,165.07a9.56,9.56,0,0,1-3.46,4.83l-14.72-6A49.77,49.77,0,0,0,465,156.61l7.25,8.43,6.13,7.06.05.06a.84.84,0,0,1,.05,1ZM373.82,87.43l.35.24L376,89a.19.19,0,0,1,.07.06c4.27,3.5,16.15,14.6,24.49,17.8,3.18,1.23,5.85,1.31,7.37-.64-.14.17-9.11-3.37-11.15-4.91-5.41-4.15-9.94-9.9-15.57-13.79,6.08-1.05,11.79-7.86,15-12.72,1.82-2.77,7.47-11.46,7.47-15-.07-6.69-4.34,4.43-5.22,6.38A50.77,50.77,0,0,1,387,81.69c-3.3,2.9-6.48,3.62-10.95,2.38-8.64-2.41-2.93-7.58-1.35-12.65,1.15-3.7-.73-17.92-5.38-18.56-1.91-.26,1.16,5.51,1.74,7.68,1.54,5.79,2.15,9.91-4.66,19.12a1.92,1.92,0,0,0-.08,2.33C367.47,83.84,371,85.64,373.82,87.43Z" />
      <path class="developer-designer-hands-3" d="M416.77,118.66c-10.5-.57-22.68.42-32.16-1.07l-24.17-16.48-.14-.11-1.57-1.06a2,2,0,0,0-.15.62l-76.85-52.4-.07,0-36.73-25-.08-.06a11.86,11.86,0,1,1,12.92-19.9c.24.16.47.32.7.5l.13.09,42.59,30.94.34.24L306,38.13,366.35,82c1.12,1.85,4.67,3.65,7.47,5.44l.35.24L376,89a.19.19,0,0,1,.07.06c4.27,3.5,16.15,14.6,24.49,17.8Z" />
      <line class="developer-designer-hands-3" x1="373.82" y1="87.43" x2="366.35" y2="81.99" />
      <line class="developer-designer-hands-3" x1="400.58" y1="106.88" x2="376.09" y2="89.08" />
      <line class="developer-designer-hands-3" x1="418.9" y1="120.2" x2="416.78" y2="118.66" />
      <line class="developer-designer-hands-3" x1="386.11" y1="119.33" x2="358.58" y2="100.56" />
      <path class="developer-designer-hands-3" d="M478.59,172.7a.83.83,0,0,1-.15.48.81.81,0,0,1-.68.36h-.07a.78.78,0,0,0,.59-.35.84.84,0,0,0,.16-.48.87.87,0,0,0-.24-.52l0-.05L472,165.07a9.56,9.56,0,0,1-3.46,4.83l-14.72-6A49.77,49.77,0,0,0,465,156.61l7.25,8.43,6.13,7.06.05.06A.82.82,0,0,1,478.59,172.7Z" />
      <line class="developer-designer-hands-3" x1="453.85" y1="163.92" x2="452.51" y2="163.38" />
      <path class="developer-designer-hands-3" d="M468.57,169.9l.11,0,8.76,3.53a.54.54,0,0,0,.25.06" />
      <line class="developer-designer-hands-3" x1="464.96" y1="156.61" x2="464.03" y2="155.53" />
      <path d="M478.44,172.7a.84.84,0,0,1-.16.48.78.78,0,0,1-.59.35h-.09a.71.71,0,0,1-.32-.07l-8.76-3.53.05,0a9.56,9.56,0,0,0,3.46-4.83l6.13,7.06,0,.05A.87.87,0,0,1,478.44,172.7Z" />
      <path d="M281.73,48.16c-4.39,3.19-8,2.79-14.06,5.22-6.81,2.72-11.49,10.13-16.55,23.69-7.22,19.17-12.73,37.72-22,55.73-9.07,17.63-12.51,29.81-20.54,48.29-8.11,18.68-15.38,41.23-31.7,53.72-13.33,10.2-19.95,23.94-22.8,29.37a295,295,0,0,1-36.81,54.13q-3.55,4.17-7,8.42h-2.1c10.5-12.8,21.11-25.41,30.32-39.24,9.89-14.87,17.33-32.12,28.22-45.62,6.57-8.15,13.54-9.84,21.27-22.05,5.84-9.16,10.66-23.76,15.3-33.55,11.17-23.78,11.48-32.49,22.73-53,9.73-17.79,17.61-45.94,25.3-64,4.87-11.4,10.51-17.87,18.28-19.64l10.23-2.83,1.87,1.24Z" />
      <path d="M441.09,113.76c-1.3-7.38-6.89-18.91-9.63-23-4.4-6.54-9.61-12.37-13.12-19.47-3.13-6.34-4.74-13.49-8-19.74-5.52-10.56-14.27-13.92-25.8-14.32-14.19-.49-27.18-4.23-41.11-5.59-4.8-.47-40.24-2.18-41.9,2.51l.34.24,1.95,1.45a21.19,21.19,0,0,1,6.61-2.15c6.13-1.05,19.09-.29,19.07-.29A155.74,155.74,0,0,1,358.36,37c9.25,1.86,17.32,2.92,25.09,2.74,28.57-.63,24.2,22.17,37.71,41,5.76,8,13.14,22,13.14,22a69.45,69.45,0,0,1,4.18,11.54c-7.88.53-10.91,5.34-18.84,4.63-.93-.08-1.88-.15-2.86-.2h0c-10.5-.57-22.68.42-32.16-1.07l-24.17-16.48-.14-.11-1.57-1.06a2,2,0,0,0-.15.62c-.48,4.34,9.75,13.93,11.35,15.06,4.6,3.27,11.68,4.68,17.15,5.28.89.1,1.8.17,2.7.22,7.33.42,14.83-.58,22.14,0,4.55.36,9,1.52,13.62,1.4,7.08-.2,2.92-2.24,6.61-3.84,13.73-5.94,36.89.43,38.35,18.6,1.18,14.68-13.38,23.44-25.75,28,1.53-1.61,5.32-6.2,3.43-7.08-2.37-1.09-9,8.87-9.9,10-7.79,9.26-17.41,11-25.2,19.53-7.05,7.72-22.31,21.89-34.46,29.12-9.93,5.91-13.11,8.67-23.67,13S335.73,237.1,325,241.61c-8.89,3.76-19,9.24-26.19,15.74-14.4,13.06-22.39,32.11-32,48.86q-5.91,10.26-11.54,20.52h1.9c6.77-12.37,14.37-25.83,20.67-37.06,7.27-13,14-24.33,25.92-33.73,15.86-12.49,30.56-15.67,48.65-22.83,3.27-1.29,8.46-3.89,11.43-5,5.84,1.87,16.66,3.72,18.37-2.37,8.14,5.44,23.35,6.94,23.87-7.14.18-4.93-5.42-10.79-4.92-14.69.34-2.51,10.23-11.19,12.13-13,6.81,13.19,24.33,14.12,31.14,3.89,4.27-6.43,1.11-13.63-1-19.91s-2.65-5.18,2.54-7.42c2.51-1.09,5.17-2.25,7.83-3.6A49.77,49.77,0,0,0,465,156.61a24.56,24.56,0,0,0,8.54-19.32C473.28,121.92,455.48,112.84,441.09,113.76ZM378.55,227.47c-2.24,1.37-10.2.91-11.77-1,3.83-2.21,7.73-4.3,11.52-6.59C380,222,381.32,225.8,378.55,227.47Zm23.66-14.82h.05c4.24,8.75-.37,17.06-12,14.23-2.86-.7-9-4.25-9.17-7.85-.1-2.13,15-11.13,17.61-12.88C399.68,208.17,401.2,210.57,402.21,212.65Zm41.19-25.83c.13,6.37-4.66,11.39-12.09,12.09-8.24.77-14.2-5.58-15.31-9.95,6.75-5.94,15.31-10.35,22.88-16.36C439.38,174,443.3,182.3,443.4,186.82Z" />
      <path d="M408,106.24c-1.52,2-4.19,1.87-7.37.64-8.34-3.2-20.22-14.3-24.49-17.8A.19.19,0,0,0,376,89q-.5-.4-.84-.66c-.32-.23-.65-.46-1-.69l-.35-.24c-2.8-1.79-6.35-3.59-7.47-5.44a1.92,1.92,0,0,1,.08-2.33c6.81-9.21,6.2-13.33,4.66-19.12-.58-2.17-3.65-7.94-1.74-7.68,4.65.64,6.53,14.86,5.38,18.56-1.58,5.07-7.29,10.24,1.35,12.65,4.47,1.24,7.65.52,10.95-2.38a50.77,50.77,0,0,0,11.46-15.53c.88-2,5.15-13.07,5.22-6.38,0,3.58-5.65,12.27-7.47,15-3.22,4.86-8.93,11.67-15,12.72,5.63,3.89,10.16,9.64,15.57,13.79C398.84,102.87,407.81,106.41,408,106.24Z" />
      <path class="developer-designer-hands-4" d="M724.52,64.15l450.81,21.69a2.25,2.25,0,0,1,2.1,1.84l31.34,167.37a6.37,6.37,0,0,1-5.09,7.46,6.14,6.14,0,0,1-2,.06L556.11,183.9a3.39,3.39,0,0,1-1.49-6.17L721.81,65A4.44,4.44,0,0,1,724.52,64.15Z" />
      <path class="developer-designer-hands-5" d="M1111.21,117.82l49.12,3.45a.36.36,0,0,1,.32.31l3.77,29.64a.36.36,0,0,1-.3.4H1164l-44-3.72a.34.34,0,0,1-.32-.36h0l.52-15.8a.37.37,0,0,0-.29-.36l-10-2a.35.35,0,0,1-.28-.38l1.08-10.8a.36.36,0,0,1,.35-.36Z" />
      <path class="developer-designer-hands-5" d="M767.84,141.52,757.22,152.6a.35.35,0,0,0,0,.51.37.37,0,0,0,.2.09l166.1,16.29a.37.37,0,0,0,.36-.21l6.43-13.62a.36.36,0,0,0-.18-.47.23.23,0,0,0-.11,0l-161.9-13.73A.36.36,0,0,0,767.84,141.52Z" />
      <path class="developer-designer-hands-5" d="M723.62,73.47l-5.84,4.09a.36.36,0,0,0-.1.49.35.35,0,0,0,.28.15l24.23,1.4a.39.39,0,0,0,.24-.06l5.69-4.14a.34.34,0,0,0,.1-.48.36.36,0,0,0-.29-.16l-24-1.34A.37.37,0,0,0,723.62,73.47Z" />
      <path class="developer-designer-hands-5" d="M662.23,116.33,649,125.18a.36.36,0,0,0-.1.49.37.37,0,0,0,.27.16l29.05,2.52a.48.48,0,0,0,.26-.07l11.79-9a.35.35,0,0,0,.08-.49.33.33,0,0,0-.26-.14l-27.62-2.36A.34.34,0,0,0,662.23,116.33Z" />
      <path class="developer-designer-hands-5" d="M670.39,133.18l-13.93,9.48a.35.35,0,0,0-.09.5.33.33,0,0,0,.25.15l31.51,3.09a.34.34,0,0,0,.27-.1l10.71-10.16a.35.35,0,0,0,0-.49.33.33,0,0,0-.25-.12l-28.29-2.41A.39.39,0,0,0,670.39,133.18Z" />
      <path class="developer-designer-hands-5" d="M694.23,146.4l11.28-10.18a.35.35,0,0,1,.26-.1l24,1.95a.37.37,0,0,1,.33.39.35.35,0,0,1-.12.23l-11.72,10.52a.37.37,0,0,1-.28.09L694.41,147a.35.35,0,0,1-.26-.44A.31.31,0,0,1,694.23,146.4Z" />
      <path class="developer-designer-hands-5" d="M725.39,149.46l11.14-10.61a.37.37,0,0,1,.28-.1l23.46,1.95a.35.35,0,0,1,.34.36.41.41,0,0,1-.11.24l-10.71,11a.37.37,0,0,1-.29.1L725.61,150a.36.36,0,0,1-.28-.42A.39.39,0,0,1,725.39,149.46Z" />
      <path class="developer-designer-hands-5" d="M1053.24,181.57l-1.59,10.7a.34.34,0,0,0,.26.4h0l32.51,3a.36.36,0,0,0,.39-.33h0l.53-10.93a.35.35,0,0,0-.32-.37l-31.45-2.79A.35.35,0,0,0,1053.24,181.57Z" />
      <path class="developer-designer-hands-5" d="M1092.32,184.58l34.84,3.73a.35.35,0,0,1,.32.35v11.23a.35.35,0,0,1-.35.35h0l-35.44-3.2a.35.35,0,0,1-.32-.37l.6-11.75a.36.36,0,0,1,.38-.34Z" />
      <path class="developer-designer-hands-5" d="M1093.57,170l33.58,2.67a.35.35,0,0,1,.33.35v12.79a.35.35,0,0,1-.35.35h0L1092.31,183a.36.36,0,0,1-.33-.39h0l1.21-12.25a.37.37,0,0,1,.38-.34Z" />
      <path class="developer-designer-hands-5" d="M1133.75,189.59l.37,11.6a.36.36,0,0,0,.33.34l36.38,3.56a.35.35,0,0,0,.39-.32v-.07l-1.56-12.28a.37.37,0,0,0-.33-.31l-35.2-2.92a.37.37,0,0,0-.39.33A.15.15,0,0,0,1133.75,189.59Z" />
      <path class="developer-designer-hands-6" d="M1162.33,326.73h-3.53c-.74-.84-1.47-1.69-2.2-2.54-11.06-12.89-25.3-32.11-34-46.6-5.43-9.07-11-17.81-16.59-26.67q-2.62-4.15-5.26-8.36c-4.17-6.63-4.21-11-4.87-18.95a241.35,241.35,0,0,1-.58-26.24c.11-4.13.32-8.24.59-12.41,0-.53.07-1.07.1-1.6.16-2.38.35-4.76.54-7.17.15-1.85.31-3.82.46-5.87a223.19,223.19,0,0,1,2.57-22.91c1.59-8.18,3.1-11.1,2.92-18.23-.32-10.7-11.41-26-23.09-28.27a11.09,11.09,0,0,0-3.13,1.18,10.5,10.5,0,0,0-.9.57,3.66,3.66,0,0,0-.44.44c-4.77,5.46,5,22.16,2.78,23.69l0,0-.13,0c-1.38.38-3.83-4.93-3.89-5.57-.24-2.67-2.79-8.38-2.92-11.86-.2-3.78,1.13-8.76,1.39-12.8a141.86,141.86,0,0,0,.28-15.76c-.62-12.5-3.84-26.37-15.85-24.65-.33.19-10.87,2.31-16.75,5.67a13,13,0,0,0-2.53,1.83L1037,64c-1.24,1.34-1.54,2.82-.24,4.4a105,105,0,0,1,6.14,11.08,51.28,51.28,0,0,1,3.39,8.09c.51,1.91.93,3.79.54,4s-.84-.41-2-2.11c-1.55-2.36-3.71-6.21-5.75-10.14-3-5.69-5.65-11.52-5.92-13.1-1.87-9.73-2.92-17.83-12.5-25.4-8.82-7-17.4-5.08-25.05-.6-.21.13-.42.26-.64.38-.39.24-.78.47-1.16.72l0,0-1.13.75s0,0,0,0c-.59.4-1.16.81-1.74,1.23-2.7,2-5.25,4.1-7.61,6.06-.31.25-.6.51-.9.75-1.15,1-2.25,1.86-3.3,2.66-.45.35-.88.68-1.32,1a23,23,0,0,1-2.47,1.59,11.49,11.49,0,0,1-1.51.73h0c4.57,2.2,6,2.09,9.82,4.12,3.11,1.65,6.81,2.24,9.82,4.12,1.52,1,7.11,1,8,1.94l0,0-1.61,1.28c.07,0,5.39.83,5,1.63a1.42,1.42,0,0,1-.39.51,1.15,1.15,0,0,1-.19.14c-3.09,2-14.38-4.26-15.47-4.69-8.62-3.47-11.18-4.05-18.54-7.88-11.31-5.86-20.34-13.07-30.52-9.14-.29.1-.58.23-.87.35a24.82,24.82,0,0,0-5.76,3.72l-.94.84c-.33.3-.66.61-1,.94-.18.17-.34.33-.51.51q-.65.65-1.29,1.32l0,0c-.86.9-1.72,1.82-2.6,2.76t0,0c-1.31,1.44-2.64,2.93-3.92,4.48t0,0c-.86,1-1.69,2.08-2.51,3.14-.42.54-.83,1.08-1.22,1.63l-.58.81c-1.06,1.5-2.05,3-3,4.57a41.16,41.16,0,0,0-3.11,6.43c-1.95,5.22-4.68,5.67-4.07,17.62.47,9.09,11.34,14.42,19.12,9.45.29-.18.58-.39.87-.61l.26-.24c1.33-1.36,2.3-5.27,2.85-8.35l-4,.4c-4.2,0-6.75-.69-8-2.51-.37-.53-.49-.87-.42-1.06.17-.44,1.52,0,3.57.87.69.28,1.15,1,5.19.39a18.94,18.94,0,0,1,3.59-.37h0c.59-3.68,1.21-7.3,2.42-9.27a1.8,1.8,0,0,1,.42-.5h0c1.1-.5.07,7.57,0,8.54-1.7,14.83-8.56,36.69-9.55,40a22.83,22.83,0,0,1-5.66,10c-.28.28-.57.55-.86.79a13.16,13.16,0,0,1-2.39,1.58,9.42,9.42,0,0,1-7.57.64c-13.62-5.07-17.26-18.39-24.63-26.28-4-4.27-13.53-5.53-18.7-1.46a8.66,8.66,0,0,0-1,1,8.9,8.9,0,0,0-.84,1.06c-3.66,5.46-4.71,19.79-3.34,27.8a17.22,17.22,0,0,0,.92,3.5c2.42,6,3.1,6.29,5.28,11.15l.41.94c2.51,5.78,1.24,24.46,6.08,31.57,1,1.63,4.29,4.81,7,7.68,3.49,3.66,5.66,6.71,9.19,10.38a146.83,146.83,0,0,0,12.34,11.52c3.69,3.08,7.53,6,11.75,9.17a231.14,231.14,0,0,0,27.65,18.07c7.51,4.14,27.68,23.76,32.42,30.74,10.47,15.41,19.3,29.32,27.16,42.83h-3.49c-6.18-10.56-12.47-20.46-19.18-31.57-20.61-30.79-39.56-39.65-60.58-53.57a207.68,207.68,0,0,1-21-16.31h0q-7.76-6.87-14.8-14.48c-4.86-5.22-10.9-11.45-13.62-18.6-3.09-8-2.16-23.3-4.7-27.53-.14-.22-.34-.66-.6-1.21-1-2.28-2.69-6.66-3.06-7.64A40,40,0,0,1,857,149a52.77,52.77,0,0,1-.24-16.9c3.14-20,21.21-24.76,31.71-9.65,3.65,5.25,14.66,26.52,25.81,22.14,8.87-3.48,13.24-29.47,14.25-35.33a18.91,18.91,0,0,1-6,2.16c-1.38.19-4.87.4-7.3-.76-16.57-8-9.53-25.86-2.63-37.42,1.64-2.74,3.27-5.13,4.58-7,4.73-6.66,13.38-16.12,21-19.85C949.58,40.81,960.35,48,969.85,54c3.89-2.19,8.89-4.45,15.35-10.22,7.4-6.6,22.38-13.27,32.73-8,7.72,4,11,9.3,14.4,16.66s2.29,8.31,8.63,6c15.12-7.39,27.5-7.86,31,4.53,2,7.09,3.27,11.61,3.47,18,0,1.14,0,2.34,0,3.63a102.81,102.81,0,0,1-.15,10.48c0,.29-.17,3.17-.21,3.45,10.62-4.75,23.92,14.31,27.55,21.61,5.16,10.38-.14,20.26-1.08,32.27-.52,6.73-1.28,10.85-1.92,18.05-.22,2.43-.42,5.22-.61,8.57-.07,1.49-.15,3-.21,4.52,0,.54,0,1.1-.07,1.65-.16,4.13-.27,8.3-.32,12.38-.23,17.49.46,33.23,1.46,36.3,1.3,4,4.82,10.3,9.11,17.33,5.9,9.7,13.31,20.83,18.42,29.37C1137.08,296.71,1147.29,310.08,1162.33,326.73Z" />
      <path class="developer-designer-hands-1" d="M1158.73,326.73H999.81c-7.85-13.5-16.68-27.41-27.14-42.81-4.74-7-24.91-26.59-32.42-30.73a231.14,231.14,0,0,1-27.65-18.07c-4.23-3.14-8.09-6.11-11.78-9.21a145.8,145.8,0,0,1-12.31-11.48c-3.53-3.67-5.7-6.72-9.19-10.38-2.74-2.87-6.09-6.05-7-7.68-4.87-7.11-3.6-25.86-6.09-31.57-.14-.34-.29-.67-.43-1-2.13-4.78-2.88-5.25-5.26-11.12a16.63,16.63,0,0,1-.91-3.53c-1.35-8-.32-22.35,3.33-27.77a8.55,8.55,0,0,1,.88-1.09,8.66,8.66,0,0,1,1-1c5.18-4,14.65-2.81,18.66,1.49,7.37,7.88,11,21.19,24.63,26.28a9.45,9.45,0,0,0,7.61-.67,13.16,13.16,0,0,0,2.39-1.58c.29-.24.58-.51.86-.79a23.1,23.1,0,0,0,5.62-10c1-3.3,7.85-25.15,9.55-40,.12-1,1.12-8.86.09-8.57h0a1.35,1.35,0,0,0-.45.52c-1.22,1.94-1.84,5.58-2.43,9.25v0a18.55,18.55,0,0,0-3.63.37c-4,.64-4.5-.12-5.18-.4-2-.82-3.3-1.26-3.54-.89-.12.18,0,.53.38,1.09,1.23,1.78,3.81,2.49,8,2.49l4-.38c-.53,3-1.5,6.91-2.81,8.32l-.26.24c-.29.22-.58.43-.87.61-7.76,5-18.69-.31-19.16-9.42-.61-12,2.11-12.4,4.07-17.62a41.58,41.58,0,0,1,3.13-6.46c.91-1.54,1.9-3.07,3-4.57l.58-.81c.39-.55.8-1.09,1.22-1.63.81-1.07,1.65-2.12,2.51-3.14t0,0c1.27-1.55,2.6-3,3.92-4.48t0,0c.87-.95,1.74-1.87,2.6-2.76l0,0c.42-.44.83-.87,1.25-1.29l0,0c.17-.18.33-.34.51-.51.33-.33.66-.64,1-.94l.94-.84a24.82,24.82,0,0,1,5.76-3.72l.87-.35c10.15-3.87,19.19,3.32,30.48,9.17,7.37,3.81,9.92,4.41,18.54,7.88,1.09.44,12.48,6.72,15.51,4.66a1.15,1.15,0,0,0,.19-.14,1.52,1.52,0,0,0,.35-.48c.37-.8-5-1.63-5-1.63l0,0,1.61-1.28c-1-1-6.52-1-8-1.94-3-1.88-6.72-2.48-9.83-4.13-3.81-2-5.25-1.95-9.83-4.12l.05,0a10.37,10.37,0,0,0,1.5-.74,23,23,0,0,0,2.47-1.59c.44-.31.87-.64,1.32-1,1-.8,2.15-1.71,3.3-2.66l.9-.75c2.36-2,4.91-4.1,7.61-6.06q.86-.63,1.74-1.23s0,0,0,0l1.13-.75,0,0,1.16-.72c.22-.12.43-.25.64-.38,7.64-4.45,16.21-6.35,25,.63,9.55,7.57,10.63,15.69,12.5,25.4.3,1.58,3,7.39,5.94,13.07,2.05,3.94,4.19,7.81,5.73,10.17,1.2,1.82,1.79,2.33,2,2.08s-.1-2.13-.58-4a50.68,50.68,0,0,0-3.41-8.11,101.7,101.7,0,0,0-6.12-11c-1.31-1.59-1-3.09.28-4.43l.24-.25a13,13,0,0,1,2.53-1.83c5.88-3.34,16.38-5.45,16.71-5.64,12-1.72,15.18,12.13,15.81,24.62a139.33,139.33,0,0,1-.24,15.79c-.26,4.06-1.59,9-1.39,12.8.18,3.48,2.73,9.18,2.92,11.86.06.64,2.51,6,3.89,5.57a.53.53,0,0,0,.17-.08l0,0c2-1.74-7.6-18.32-2.78-23.69a2.72,2.72,0,0,1,.41-.42l0,0a10.5,10.5,0,0,1,.9-.57,11.4,11.4,0,0,1,3.09-1.15c11.68,2.26,22.77,17.59,23.09,28.27.21,7.13-1.3,10-2.92,18.22a222.47,222.47,0,0,0-2.57,22.89c-.15,2.06-.31,4-.45,5.9-.2,2.4-.38,4.77-.54,7.13,0,.54-.08,1.08-.11,1.61-.27,4.17-.47,8.28-.6,12.41a242,242,0,0,0,.59,26.27c.63,7.92.66,12.32,4.87,19,1.75,2.79,3.5,5.55,5.25,8.32,5.61,8.85,11.16,17.6,16.6,26.71,8.66,14.47,22.93,33.71,34,46.6C1157.28,325.07,1158,325.9,1158.73,326.73Z" />
    </g>
  </g>
</svg>