<svg xmlns="http://www.w3.org/2000/svg" viewBox="0 0 255.69 167.7">
  <defs>
    <style>
      .flip-icon-1{
        fill:#f3f3f3;
      }
      .flip-icon-2, .flip-icon-3{
        fill:none;
        stroke:#f3f3f3;
        stroke-miterlimit:10;
        stroke-width:8px;
      }
      .flip-icon-3{
        stroke-linecap:round;
      }
    </style>
  </defs>
  <g id="Layer_2" data-name="Layer 2">
    <g id="Layer_1-2" data-name="Layer 1">
      <path class="flip-icon-1" d="M10.29,8h.1l195,10.8a2.23,2.23,0,0,1,1.6.8,2.16,2.16,0,0,1,.5,1.8l-12.1,101a2.23,2.23,0,0,1-1.8,2L30.39,159.7c-.2,0-.3.1-.5.1a2.33,2.33,0,0,1-2.3-2L7.79,10.7a2.16,2.16,0,0,1,.5-1.8,3.12,3.12,0,0,1,2-.9m0-8A10.34,10.34,0,0,0,.09,11.7l19.8,147.1a10.32,10.32,0,0,0,10.2,8.9,16.35,16.35,0,0,0,2.2-.2l163.2-35.3a10.2,10.2,0,0,0,8-8.8l12.1-101a10.28,10.28,0,0,0-9.7-11.5L10.89.1a1.76,1.76,0,0,0-.6-.1Z" />
      <path class="flip-icon-2" d="M212.09,50.6c24.1,4.9,39.6,12.4,39.6,20.9,0,14.7-46.9,26.6-104.7,26.6-37.8,0-70.9-5.1-89.3-12.7" />
      <line class="flip-icon-3" x1="57.79" y1="85.4" x2="76.79" y2="116.4" />
      <line class="flip-icon-3" x1="57.79" y1="85.4" x2="92.79" y2="71.5" />
    </g>
  </g>
</svg>