<svg id="Layer_1" data-name="Layer 1" xmlns="http://www.w3.org/2000/svg" viewBox="0 0 25.97 16"><defs><style>.cls-1{fill:#231f20;}</style></defs><path d="M21,14a2.46,2.46,0,0,0-.33-.62,17.93,17.93,0,0,0-3.79-3.43.3.3,0,0,0-.2-.08c-.12,0-.22.09-.29.24s-.15.45-.24.67a.43.43,0,0,0,.17.56c.43.32.86.66,1.28,1A9,9,0,0,1,18.7,13.4a.28.28,0,0,1,.08.33.21.21,0,0,1-.2.12l-.14,0-.18,0a24.75,24.75,0,0,1-3.85-1.26c-.33-.14-.33-.13-.13-.43a7.14,7.14,0,0,0,.89-6.71,7.21,7.21,0,0,0-6-4.93A8.22,8.22,0,0,0,7.86.34,7.38,7.38,0,0,0,2.27,3,7.46,7.46,0,0,0,1,5.05c-1-.76-2-1.52-3-2.35-.29-.26-.55-.55-.82-.83-.08-.09-.15-.18-.08-.31a.24.24,0,0,1,.24-.13h.08l.18,0c.89.23,1.75.57,2.62.87A4,4,0,0,0,1,2.61c.17,0,.27-.15.74-.57s.3-.47-.11-.63a27.52,27.52,0,0,0-2.81-1A8.31,8.31,0,0,0-3.38,0l-.38,0A1.15,1.15,0,0,0-4.82,1.68a3,3,0,0,0,.42.74A13.27,13.27,0,0,0-1.94,4.87a59.72,59.72,0,0,0,9.69,6.36,47.12,47.12,0,0,0,9.27,4,9,9,0,0,0,2.42.43,3.85,3.85,0,0,0,.48,0A1.12,1.12,0,0,0,21,14ZM13.2,12h0a.64.64,0,0,1-.81.39c-1.62-.71-2.86-1.38-4.16-2.07A63.59,63.59,0,0,1,1.54,6.26l.36-.81A6.28,6.28,0,0,1,3,3.63,6.42,6.42,0,0,1,7.86,1.34,7.53,7.53,0,0,1,9,1.44a6.22,6.22,0,0,1,5.23,4.28,6.2,6.2,0,0,1-.79,5.83C13.36,11.7,13.29,11.87,13.2,12Z" transform="translate(4.93)"/><path class="cls-1" d="M1,9.49c1,.68,2.07,1.38,3.15,2a55.48,55.48,0,0,0,5.85,3A6.83,6.83,0,0,1,7.59,15H7.48a6.52,6.52,0,0,1-5.4-2.78A6.19,6.19,0,0,1,1,9.49ZM.24,7.91c-.21,0-.34.16-.35.47a7.18,7.18,0,0,0,1.39,4.43A7.52,7.52,0,0,0,7.46,16h.13a7.89,7.89,0,0,0,3.92-1.16.46.46,0,0,0,.26-.39c0-.2-.15-.3-.32-.38l-.33-.15a55.57,55.57,0,0,1-6.5-3.26C3.24,9.83,1.92,8.92.58,8a.67.67,0,0,0-.34-.12Z" transform="translate(4.93)"/></svg>