<?xml version="1.0" encoding="utf-8"?>
<!-- Generator: Adobe Illustrator 24.3.0, SVG Export Plug-In . SVG Version: 6.00 Build 0)  -->
<svg version="1.1" id="Layer_1" xmlns="http://www.w3.org/2000/svg" xmlns:xlink="http://www.w3.org/1999/xlink" x="0px" y="0px"
	 viewBox="0 0 422 260" style="enable-background:new 0 0 422 260;" xml:space="preserve">
<g>
	<path d="M25.1,8c10.3,0,20.3,2.8,30.9,5.8c1,0.3,2,0.6,3,0.8c14.6,4,29.2,9.6,42,14.6c-1.1,1-2.1,2-2.9,2.7
		c-0.8,0.8-1.7,1.6-2.4,2.2c-0.7-0.3-1.6-0.6-2.4-0.9c-1.8-0.7-4.1-1.6-7-2.6c-3.7-1.3-7.5-2.6-11.2-4C64.7,23,54.1,19.2,43.2,16.4
		c-1.1-0.3-2.3-0.6-3.5-0.9c-0.1,0-0.3-0.1-0.4-0.1c-0.9-0.1-1.7-0.2-2.5-0.2c-4.7,0-8.6,2.3-10.9,6.3c-1.6,2.8-3.3,8.4,2.5,14.4
		c1.1,1.1,2.2,2.3,3.3,3.4c3.3,3.5,6.7,7.1,10.5,10.5c15.5,13.7,32,26.2,49,38.7c1.4,1,3.1,1.6,4.8,1.6c0.7,0,1.4-0.1,2.1-0.3
		c2.4-0.6,4.3-2.3,5.3-4.5c5.8-13.5,12.1-23.6,19.7-31.9c24.1-26.4,52.6-39.8,84.9-39.8c6.4,0,13,0.5,19.7,1.6
		c45.3,7.1,76.1,32.3,91.6,75c12.7,35,8.1,69.3-13.6,101.8l-0.3,0.4c-2.1,3.2-4.3,6.5-2.9,10.9c1.4,4.4,5,5.9,8.5,7.4l0.4,0.2
		c20.6,8.6,42,15.6,63.7,20.9c0,0,0.1,0,0.1,0c0.4,0.1,0.8,0.2,1.1,0.2c0.3,0.1,0.8,0.2,0.9,0.2c0,0,0,0,0.1,0
		c1.8,0.6,3.4,0.9,5,0.9c4.4,0,8.1-2.2,10.3-6.2c1.8-3.3,2.8-8.5-2.4-14.5c0,0,0,0,0-0.1c-6-6.6-12.5-12.8-19.6-18.3
		c-7.5-6.1-14.4-11.5-21-16.4c0.7-1.8,1.3-3.6,1.9-5.4c0.2-0.7,0.5-1.4,0.7-2.1c1.6,1.2,3.1,2.4,4.7,3.6
		c19.6,14.9,38.1,29,52.2,48.2c1.8,2.5,3.2,5.2,4.2,8.1c1.1,3,1.9,7.4-0.2,10.7c-1.7,2.6-5.2,4.4-9.8,4.8c-2.2,0.2-4.6,0.4-6.9,0.4
		c-12.3,0-24.6-3.2-37.2-6.8c-30-8.6-74.1-23.5-149-63.6C150.1,143.5,99,110,53.6,72.9C39.9,61.8,25.9,49.5,15.1,34.7
		c0-0.1-0.1-0.1-0.1-0.2c-2.4-3.1-4.3-6.5-5.8-10.1C8,21.3,7.2,17,9.3,13.5c1.8-2.9,5.5-4.8,10.5-5.3C21.5,8.1,23.3,8,25.1,8
		 M25.1,0c-2,0-4.1,0.1-6.1,0.3C3.8,1.8-3.6,13.1,1.7,27.3c1.7,4.3,4.1,8.4,6.9,12.1c11.2,15.3,25.3,27.8,39.9,39.7
		c48.9,39.9,101.9,73.6,157.6,103.4c48.3,25.8,97.7,49.2,150.6,64.3c12.9,3.7,25.9,7.1,39.4,7.1c2.6,0,5.1-0.1,7.7-0.4
		c14.7-1.5,21.6-12.3,16.7-26.2c-1.3-3.6-3.1-7-5.3-10.1c-16.7-22.8-39.6-38.8-61.6-55.8c-1.1-0.9-2.2-1.3-3.3-1.3
		c-2,0-3.7,1.4-4.7,4c-1.5,3.5-2.4,7.3-3.9,10.8c-1.5,3.8-0.7,6.6,2.7,9.1c7.1,5.3,14,10.7,20.9,16.3c6.7,5.3,12.9,11.1,18.6,17.4
		c1.4,1.6,2.5,3.3,1.4,5.4c-0.8,1.5-2,2-3.3,2c-0.8,0-1.6-0.2-2.4-0.5c-0.9-0.3-1.9-0.5-2.9-0.7c-21.3-5.2-42.2-12-62.5-20.5
		c-5.5-2.3-5.4-2.1-2.1-7.1c22.7-33.9,28.3-70.7,14.5-108.9c-16.5-45.6-50-72.8-97.9-80.2c-7.2-1.1-14.1-1.7-20.9-1.7
		c-35.2,0-65.6,14.8-90.8,42.5C108,58,101.5,69.5,96,82.1C79.3,69.7,62.9,57.4,47.6,43.8c-4.7-4.2-9-8.9-13.3-13.5
		C33,29,31.8,27.5,33,25.4c0.9-1.6,2.3-2.2,3.9-2.2c0.4,0,0.8,0,1.3,0.1c1,0.2,1.9,0.4,2.9,0.7c14.5,3.7,28.5,9.2,42.6,14.1
		c7.5,2.6,10.6,4.3,12.8,4.3c2.8,0,4.5-2.6,12-9.3c5.5-4.9,5-7.7-1.7-10.3c-15-5.9-30.1-11.7-45.6-16C49.3,3.6,37.5,0,25.1,0L25.1,0
		z"/>
</g>
<g>
	<path d="M86.4,138.1c4.3,2.8,8.5,5.6,12.7,8.5c16.8,11.2,34.3,22.8,52,33.5c37.4,22.6,76.6,40.5,106.5,53.6l0.8,0.4
		c1,0.5,2,0.9,3,1.3c-15.9,9.9-39.5,16.7-57.9,16.7c-0.7,0-1.3,0-2,0c-19.7-0.5-37.6-4.8-53.1-12.8c-15.7-8-29.5-20.1-41-35.8
		C93.4,184.4,86.4,162.5,86.4,138.1 M83.9,128.5c-3.3,0-5.5,2.7-5.6,7.6c-0.4,26.4,6.8,50.7,22.5,72c24.8,33.8,58.6,50.7,100.4,51.8
		c0.7,0,1.5,0,2.2,0c20.6,0,46.3-7.6,63.6-18.8c2.3-1.5,4.3-3.3,4.3-6.3c-0.1-3.3-2.5-4.9-5.1-6.1c-1.8-0.8-3.6-1.6-5.5-2.4
		c-36.1-15.8-71.7-32.7-105.5-53.1c-22.4-13.5-44-28.2-65.7-42.7C87.4,129.2,85.6,128.5,83.9,128.5L83.9,128.5z"/>
</g>
</svg>
