<svg id="Layer_1" data-name="Layer 1" xmlns="http://www.w3.org/2000/svg" viewBox="0 0 16.4 16"><path d="M16.13,8.2A8.16,8.16,0,0,1,10.5,16c-.42.08-.56-.17-.56-.39s0-1.14,0-2.25a1.94,1.94,0,0,0-.56-1.51c1.83-.2,3.75-.9,3.75-4.05a3.19,3.19,0,0,0-.84-2.2,3.06,3.06,0,0,0-.08-2.17s-.69-.22-2.25.84A8.3,8.3,0,0,0,7.92,4a8.18,8.18,0,0,0-2,.28C4.3,3.18,3.61,3.4,3.61,3.4a2.92,2.92,0,0,0-.07,2.17,3.19,3.19,0,0,0-.84,2.2c0,3.15,1.92,3.85,3.73,4.05a1.83,1.83,0,0,0-.52,1.1,1.72,1.72,0,0,1-2.38-.68,1.75,1.75,0,0,0-1.26-.84s-.8,0-.06.49a2.24,2.24,0,0,1,.92,1.21s.47,1.59,2.76,1.1v1.39c0,.22-.14.47-.56.4A8.21,8.21,0,1,1,16.13,8.2Z" transform="translate(0.27)"/></svg>