<svg id="Layer_3" data-name="Layer 3" xmlns="http://www.w3.org/2000/svg" viewBox="0 0 16 16"><path d="M0,0V16H5.89V14.17a3.66,3.66,0,0,1-.82.09,1.89,1.89,0,0,1-1.94-1.19,2.24,2.24,0,0,0-.92-1.21c-.71-.48,0-.49.06-.49a1.75,1.75,0,0,1,1.26.84,1.61,1.61,0,0,0,1.44.9,2.24,2.24,0,0,0,.94-.22,1.83,1.83,0,0,1,.52-1.1c-1.81-.2-3.73-.9-3.73-4a3.19,3.19,0,0,1,.84-2.2,2.92,2.92,0,0,1,.07-2.17.63.63,0,0,1,.18,0,4,4,0,0,1,2.08.86,8.18,8.18,0,0,1,2.05-.28A8.3,8.3,0,0,1,10,4.21,3.92,3.92,0,0,1,12,3.35a.63.63,0,0,1,.18,0,3.06,3.06,0,0,1,.08,2.17,3.19,3.19,0,0,1,.84,2.2c0,3.15-1.92,3.85-3.75,4A1.94,1.94,0,0,1,10,13.3c0,.64,0,1.21,0,1.62V16H16V0ZM2.11,13.44a2.79,2.79,0,0,0,1.26,1.48H1.08V12.28a2.27,2.27,0,0,0,.53.47c.07.05,0,.05.1.07A1.59,1.59,0,0,1,2.11,13.44Zm12.81,1.48H11c0-.41,0-1,0-1.62a3.48,3.48,0,0,0-.07-.73c2.17-.67,3.26-2.29,3.26-4.83a4.29,4.29,0,0,0-.74-2.45A4.41,4.41,0,0,0,13.23,3a1.09,1.09,0,0,0-.68-.65A1.75,1.75,0,0,0,12,2.27a4.49,4.49,0,0,0-2.27.78,9.86,9.86,0,0,0-1.83-.2,10.13,10.13,0,0,0-1.88.2,4.49,4.49,0,0,0-2.27-.78,1.75,1.75,0,0,0-.51.07A1.08,1.08,0,0,0,2.6,3,4.28,4.28,0,0,0,2.35,5.3a4.3,4.3,0,0,0-.73,2.44,6.06,6.06,0,0,0,.5,2.56,1.41,1.41,0,0,0-1,.48V1.08H14.92Z"/></svg>