<?xml version="1.0" encoding="utf-8"?>
<!-- Generator: Adobe Illustrator 24.3.0, SVG Export Plug-In . SVG Version: 6.00 Build 0)  -->
<svg version="1.1" id="Layer_1" xmlns="http://www.w3.org/2000/svg" xmlns:xlink="http://www.w3.org/1999/xlink" x="0px" y="0px"
	 viewBox="0 0 16 16" style="enable-background:new 0 0 16 16;" xml:space="preserve">
<style type="text/css">
	.st0{display:none;}
	.st1{display:inline;fill:#555655;}
	.st2{display:inline;opacity:0.25;fill:#555655;enable-background:new    ;}
</style>
<g id="Layer_1_1_" class="st0">
	<path class="st1" d="M16,8c0,4.4-3.6,8-8,8s-8-3.6-8-8s3.6-8,8-8c0.1,0,0.1,0,0.2,0C12.5,0.1,16,3.7,16,8z M9.9,14.9
		c0,0.1,0,0.2,0,0.4c0,0.1,0,0.1,0.1,0.1c0.4-0.1,0.8-0.3,1.2-0.5c0.7-0.3,1.3-0.7,1.9-1.2c1.7-1.5,2.7-3.7,2.6-6
		c0-0.9-0.2-1.9-0.6-2.7c-0.1-0.2-0.1-0.2-0.4-0.2c-0.3,0.1-0.6,0.2-0.9,0.3c-0.3,0.2-0.7,0.3-1.1,0.4c-0.2,0-0.4,0.1-0.5,0.3
		C12.1,6,12,6.2,11.9,6.4C11.7,7,11.5,7.5,11.3,8c-0.1,0.2-0.1,0.5-0.1,0.8c0,0.2,0.1,0.3,0.2,0.4c0.3,0.5,0.3,1.1,0,1.6
		c-0.2,0.4-0.3,0.8-0.4,1.3c0,0.3,0,0.5-0.1,0.8c-0.1,0.4-0.3,0.7-0.5,1.1C10.2,14.2,10,14.6,9.9,14.9z M9.4,14.9
		c0.3-0.5,0.7-0.9,1-1.4c0.2-0.2,0.3-0.5,0.3-0.7c0-0.3,0.1-0.6,0.1-0.9c0-0.4,0.1-0.7,0.3-1c0.3-0.4,0.3-0.9,0.1-1.4
		c-0.2-0.5-0.3-1.1-0.3-1.6c0-0.3-0.1-0.5-0.4-0.6c-0.1-0.1-0.2-0.1-0.3-0.1C9.6,7,9.3,6.6,9.2,6.1C9.1,5.5,9,4.8,9,4.2
		c0-0.3-0.1-0.5-0.4-0.7C8.4,3.4,8.2,3.2,8.1,2.9C7.9,2.6,7.8,2.3,7.6,2.1C7.2,1.5,6.6,1.2,6,1.2c-0.4,0-0.8-0.1-1.2-0.1
		c-0.1,0-0.2,0-0.3,0.1C4,1.4,3.5,1.7,3.1,2.1c-0.4,0.3-0.7,0.7-1,1.1C1.8,3.5,1.6,3.7,1.5,4c-1,1.6-1.3,3.5-1,5.4
		C0.7,10.7,1.3,12,2.2,13C3,13.9,4,14.6,5.1,15.1c0.7,0.3,1.5,0.5,2.2,0.6c0.6,0.1,1.1,0.1,1.7,0c0,0,0.1,0,0.1-0.1
		C9.2,15.3,9.2,15.1,9.4,14.9z M9.2,4.6c0,0.6,0.1,1.2,0.3,1.7c0.1,0.3,0.3,0.5,0.6,0.6C10.5,7,10.8,7.2,11,7.4
		c0.1,0.2,0.2,0.2,0.3-0.1s0.3-0.7,0.4-1c0.1-0.2,0.1-0.5,0.1-0.7c0-0.2,0-0.5,0-0.7c0.1-0.4,0.2-0.8,0.4-1.2
		c0.2-0.6,0.1-1.2-0.3-1.7c-0.1-0.1-0.2-0.3-0.2-0.4c-0.1-0.3-0.4-0.5-0.6-0.6C10.5,0.8,10,0.6,9.4,0.5c-0.1,0-0.1,0-0.2,0.1
		C9,1,8.8,1.3,8.4,1.6C8.1,1.7,8,2.1,8.1,2.4c0.1,0.4,0.3,0.8,0.7,1c0.3,0.2,0.5,0.5,0.5,0.9C9.2,4.4,9.2,4.5,9.2,4.6z M12,5.1
		c0,0.1,0,0.1,0,0.2c0,0.2,0.1,0.3,0.4,0.2h0.2c0.2,0,0.4-0.1,0.6-0.2l1-0.5c0.1-0.1,0.3-0.1,0.4-0.1c0.2,0,0.2-0.1,0.1-0.2
		c-0.5-1-1.3-1.9-2.2-2.6c-0.1-0.1-0.2-0.2-0.4-0.2c0,0-0.1-0.1-0.1,0c0,0,0,0.1,0,0.1C12,1.9,12.1,2,12.1,2.1
		c0.2,0.3,0.3,0.7,0.3,1.1c0,0.3-0.1,0.5-0.2,0.8C12.1,4.4,12,4.8,12,5.1z M5.3,0.9C5.4,1,5.6,1,5.7,1c0.3,0,0.7,0,1,0.1
		c0.4,0.2,0.7,0.4,0.9,0.7C7.8,2,7.9,2,8,1.8c0.1-0.1,0.3-0.3,0.4-0.4C8.6,1.3,8.7,1.2,8.8,1c0.1-0.2,0.1-0.4,0-0.5
		C8.7,0.4,8.6,0.4,8.5,0.4c-0.6,0-1.2,0-1.8,0.1C6.2,0.6,5.8,0.7,5.3,0.9z"/>
	<path class="st2" d="M2.1,3.2C2,3.5,2,3.8,1.9,4.1C1.8,4.5,1.7,5,1.7,5.5c0,0.4,0,0.9,0,1.3c0.2,1.9,0.9,3.7,2.2,5.1
		c1.4,1.6,3.4,2.7,5.5,3c-0.1,0.2-0.2,0.4-0.3,0.6c0,0.1-0.1,0.1-0.1,0.1c-0.6,0.1-1.1,0.1-1.7,0c-0.8-0.1-1.5-0.3-2.2-0.6
		C4,14.6,3,13.9,2.2,13c-0.9-1-1.5-2.3-1.7-3.6c-0.4-1.9,0-3.8,1-5.4C1.6,3.7,1.8,3.4,2.1,3.2z"/>
	<path class="st2" d="M9.9,14.9h1.3c-0.4,0.2-0.8,0.3-1.2,0.5c-0.1,0-0.1,0-0.1-0.1C9.9,15.2,9.9,15,9.9,14.9z"/>
</g>
<g id="Layer_2_1_">
	<path d="M8,0C3.6,0,0,3.6,0,8s3.6,8,8,8s8-3.6,8-8S12.4,0,8,0z M12.8,4.1c0.1-0.3,0.2-0.6,0.2-0.9c0,0,0-0.1,0-0.1
		C13,3,13,3,13,2.9c0.4,0.4,0.8,0.9,1.1,1.4L14,4.4l0,0l-1,0.5h-0.2h-0.2C12.6,4.6,12.7,4.4,12.8,4.1z M8.7,2C9,1.8,9.3,1.5,9.5,1.2
		L9.5,1c0.4,0.1,0.9,0.2,1.3,0.4c0.2,0.1,0.3,0.2,0.4,0.3c0,0,0,0.1,0.1,0.1c0.1,0.2,0.2,0.3,0.3,0.5c0.3,0.3,0.3,0.8,0.2,1.2
		l-0.1,0.3c-0.1,0.3-0.2,0.7-0.3,1c-0.1,0.3-0.1,0.6,0,0.9c0,0.2,0,0.3-0.1,0.5c-0.1,0.2-0.2,0.4-0.2,0.6c-0.2-0.2-0.5-0.3-0.8-0.3
		c-0.1,0-0.2-0.1-0.2-0.2c-0.2-0.5-0.3-1-0.3-1.6V4.2c0-0.5-0.3-1-0.7-1.2C8.8,2.8,8.6,2.6,8.5,2.3C8.5,2.2,8.7,2,8.7,2z M8.3,0.9
		L8.1,1L8.1,1C8,1.1,7.9,1.2,7.8,1.3L7.5,1L7.3,0.9C7.6,0.9,7.9,0.9,8.3,0.9z M10.2,12.6c0,0.2-0.1,0.4-0.2,0.5
		c-0.1,0.2-0.3,0.4-0.4,0.6c-0.2,0.3-0.4,0.6-0.6,0.9l-0.1,0.2l0,0c0,0.1-0.1,0.1-0.1,0.2s0,0.1-0.1,0.2c-0.4,0-0.9,0-1.3,0
		c-0.7-0.1-1.4-0.2-2.1-0.5c-1-0.4-1.9-1.1-2.7-1.9C1.8,11.7,1.2,10.5,1,9.3C0.7,7.7,1,5.9,1.8,4.5c0-0.1,0.1-0.1,0.1-0.2
		C2.1,4,2.3,3.7,2.5,3.5c0.3-0.4,0.6-0.7,1-1c0.4-0.4,0.9-0.7,1.4-0.9h0.3h0.3H6c0.5,0,0.9,0.3,1.2,0.7C7.3,2.5,7.5,2.8,7.6,3
		C7.7,3.4,8,3.8,8.4,4c0.1,0,0.2,0.1,0.1,0.2c0,0.7,0.1,1.3,0.2,2C8.8,6.9,9.3,7.4,10,7.6c0.1,0,0.1,0,0.2,0.1
		c0.1,0.1,0.1,0.1,0.1,0.2c0,0.6,0.1,1.2,0.3,1.8c0.1,0.3,0.1,0.6-0.1,0.9c-0.2,0.4-0.3,0.8-0.3,1.3C10.2,12.1,10.2,12.4,10.2,12.6z
		 M12.7,13.4c-0.5,0.5-1.1,0.9-1.7,1.1c-0.1,0.1-0.3,0.2-0.4,0.2c0-0.1,0.1-0.1,0.1-0.2c0-0.1,0.1-0.2,0.2-0.3l0.1-0.1
		c0.2-0.3,0.4-0.7,0.5-1.1c0-0.2,0.1-0.4,0.1-0.6v-0.2c0-0.4,0.1-0.7,0.3-1.1c0.3-0.6,0.3-1.4,0-2c-0.1-0.1-0.1-0.2-0.1-0.3
		c0-0.1,0-0.3,0-0.4c0.1-0.2,0.2-0.4,0.3-0.6s0.2-0.6,0.4-0.9s0.2-0.4,0.3-0.6c0,0,0,0,0.1,0c0.5-0.1,0.9-0.2,1.3-0.5
		c0.1-0.1,0.2-0.1,0.4-0.2l0.1-0.1C14.9,6.2,15,7,15.1,7.8C15.1,9.9,14.3,12,12.7,13.4z"/>
</g>
</svg>
