<svg id="Layer_1" data-name="Layer 1" xmlns="http://www.w3.org/2000/svg" viewBox="0 0 479.19 479.28"><defs><style>.cls-1,.cls-2{fill:#555655;}.cls-2{opacity:0.25;}</style></defs><path class="cls-1" d="M482.07,241.73c.49,132.45-108.48,240.15-241,239.49C110,480.57,0,372,2.94,235.91,5.65,108.5,111.7-.81,248,2,376.32,4.63,482.6,110.32,482.07,241.73ZM300.13,448.83c-1.43,3.49-1.19,7.16-1.09,10.81.07,2.49,1.08,3.71,3.8,2.9,12.37-3.69,24.74-7.39,36.18-13.58a199,199,0,0,0,55.33-36.12c52.66-48.22,78.7-108,76.83-179.64-.72-27.94-6.91-54.65-17.57-80.39-2.6-6.29-4.46-7.08-11.43-6.3-9.41,1.05-17.28,5.75-25.23,10.2-10.06,5.62-20.15,10.86-32,11.77-6.36.49-12,3-15.33,8.89-3.37,6.1-6.62,12.28-9.66,18.54-7.57,15.57-13.15,32-20,47.84a34.19,34.19,0,0,0-1.87,22.82,57.71,57.71,0,0,0,5.43,13.37c8.64,15.89,6.43,31.06-1.18,46.67a104.7,104.7,0,0,0-10.68,37.14c-.67,7.75-.58,15.58-2.24,23.3-2.6,12-9.23,22-15.46,32.18C308.28,428.59,302.2,437.77,300.13,448.83Zm-16.25-1.94c8.71-15.2,20.28-28.4,29.94-42.95,4.41-6.65,7.92-13.48,9-21.39,1.12-8.58,2.21-17.16,2.2-25.84a56.84,56.84,0,0,1,8-30c8.11-13.25,8.71-26.9,2.83-40.57-6.75-15.68-8.75-32-8.54-48.69.12-9.39-4.42-15-11.68-19.23a34.72,34.72,0,0,0-10.18-4c-16.07-3.39-23.26-14.13-26.54-29.37A278.49,278.49,0,0,1,272.18,128c-.06-8.7-3.72-15.73-11.42-20.36-7.53-4.52-12.68-11-16.31-19a110.57,110.57,0,0,0-15.58-24.91c-11.82-14.28-25.73-25.41-45.16-26.35-11.48-.55-22.84-2.29-34.32-2.63a18.47,18.47,0,0,0-9.11,2A222.63,222.63,0,0,0,96.87,65C85.12,74.79,73.85,85.17,65,97.8c-7.32,7.38-12.79,16.13-18.09,25-30,49.83-39.5,103.58-29.42,160.6,7.15,40.47,24.71,76.25,51.6,107.45a228,228,0,0,0,202.66,77.95c1.64-.2,4-.17,4.17-2.7C276.42,458.76,280.84,453.12,283.88,446.89Zm-4.13-307.64c-.3,17.67,3.89,34.61,8.4,51.48,2.58,9.65,8.79,15.9,18.49,18.39,10,2.59,18.78,7.07,25.87,15,4.68,5.2,7.37,4.51,10.13-2,4.35-10.24,8.61-20.53,12.47-31a40.79,40.79,0,0,0,2.18-22,64.19,64.19,0,0,1-.61-21.83c2-12.59,6.73-24.33,10.69-36.3,5.9-17.86,4.59-34.4-7.54-49.35-3.07-3.79-5.25-8.05-7.53-12.3a42.09,42.09,0,0,0-18.52-17.56C318.12,24,301.13,19.64,284,16.23c-2.57-.51-4.39-.15-5.5,2.67C273.55,31.46,265.15,41.32,254.93,50c-7.44,6.29-13.31,14.65-9.48,24.47,4.27,11,9.13,22.37,20.13,29,9.76,5.88,14.05,14.69,14.17,25.81C279.78,132.6,279.75,135.93,279.75,139.25Zm83,16a53.35,53.35,0,0,0,.62,5.94c1.41,7,4.06,8.43,10.55,6.06,1.72-.63,3.51-1,5.25-1.58,6.32-2.07,13.21-1.81,19.3-4.75,10.33-5,20.66-10,30.95-15.05a38.22,38.22,0,0,1,11.81-3.79c5.32-.71,6.26-2.51,3.83-7.14a227.78,227.78,0,0,0-67.23-78c-3.34-2.47-6.47-5.32-10.54-6.56-1.26-.37-2.67-2.19-4-.41-1,1.32-.35,2.93.4,4.25,1.89,3.32,3.77,6.66,5.84,9.87,6.46,10,9.29,20.77,7.56,32.75a130.85,130.85,0,0,1-6.26,24.09C367.12,131.76,363.19,142.56,362.78,155.23Zm-201-127.82c3.57,3.69,7.74,4.36,12,4.83,9.86,1.09,19.94.3,29.45,4.12C214.46,40.85,223.68,48,231.8,56.74c4.53,4.9,6.69,4.91,10.89,0a120.66,120.66,0,0,1,11.95-12,52.5,52.5,0,0,0,11.7-14.16c4.67-8.69-.17-17.26-9.8-17.55-18-.55-35.87-.29-53.63,3A227.22,227.22,0,0,0,161.76,27.41Z" transform="translate(-2.88 -1.94)"/><path class="cls-2" d="M65,97.8c-1.14,8.74-4.4,17-6.2,25.55a358.9,358.9,0,0,0-6,42.72,221.66,221.66,0,0,0,.42,39.25,263.68,263.68,0,0,0,18.51,77,271.45,271.45,0,0,0,46.92,75.9C148.6,392.49,185,417.12,227.57,433a265.81,265.81,0,0,0,56.31,13.93c-3,6.23-7.46,11.87-8,19.16-.19,2.53-2.53,2.5-4.17,2.7A228.49,228.49,0,0,1,69.05,390.8c-26.89-31.2-44.45-67-51.6-107.45-10.08-57-.54-110.77,29.42-160.6C52.17,113.93,57.64,105.18,65,97.8Z" transform="translate(-2.88 -1.94)"/><path class="cls-2" d="M300.13,448.83,339,449c-11.44,6.19-23.81,9.89-36.18,13.58-2.72.81-3.73-.41-3.8-2.9C298.94,456,298.7,452.32,300.13,448.83Z" transform="translate(-2.88 -1.94)"/></svg>