<svg xmlns="http://www.w3.org/2000/svg" viewBox="0 0 16 16"><g id="Layer_8" data-name="Layer 8"><path d="M6.05,12.71a2.17,2.17,0,0,1-1.75-.64A3.27,3.27,0,0,1,3.76,10V7.39H2.37V6.07H5.48V10a1.89,1.89,0,0,0,.24,1.09.93.93,0,0,0,.81.33H7.9v1.32ZM3.94,5.3a.16.16,0,0,1-.18-.18V3.47a.16.16,0,0,1,.18-.18H5.3a.16.16,0,0,1,.18.18V5.12a.16.16,0,0,1-.18.18Z"/><path d="M8.36,6.07H9.9l.17,1a1.6,1.6,0,0,1,.62-.85,2,2,0,0,1,1.08-.29,1.62,1.62,0,0,1,1.38.62,3,3,0,0,1,.48,1.84v4.26H11.92v-4a2,2,0,0,0-.19-1,.68.68,0,0,0-.61-.32.87.87,0,0,0-.77.42,2,2,0,0,0-.28,1.15v3.76H8.36Z"/></g><g id="Layer_1" data-name="Layer 1"><path d="M0,0V16H16V0ZM14.92,14.92H1.08V1.08H14.92Z"/></g></svg>