<svg id="Layer_1" data-name="Layer 1" xmlns="http://www.w3.org/2000/svg" viewBox="0 0 19.69 16"><path d="M11.68,1.5a2.53,2.53,0,0,1,1.85.8,1.85,1.85,0,0,0,.39.3A1.31,1.31,0,0,0,14,3a1.55,1.55,0,0,0,.32.54,1.66,1.66,0,0,0-.06.55c0,.14,0,.27,0,.41a9.91,9.91,0,0,1-10,10H3.8A11.55,11.55,0,0,0,5,13.7,1.5,1.5,0,0,0,4.08,11a2.54,2.54,0,0,1-1-.24,1.5,1.5,0,0,0-.67-2.61,2.49,2.49,0,0,1-1.21-.61,1.51,1.51,0,0,0,.34-2.67A2.56,2.56,0,0,1,.69,4a13,13,0,0,0,7,2.46h.07A1.49,1.49,0,0,0,9.21,4.62,2.88,2.88,0,0,1,9.15,4,2.53,2.53,0,0,1,11.68,1.5m0-1.5a4,4,0,0,0-4,4,3.93,3.93,0,0,0,.1.92A11.39,11.39,0,0,1-.57.75a4,4,0,0,0-.54,2A4,4,0,0,0,.68,6.14a4,4,0,0,1-1.83-.51v0a4,4,0,0,0,3.24,4A3.76,3.76,0,0,1,1,9.78a3.67,3.67,0,0,1-.75-.07,4,4,0,0,0,3.77,2.81,8.09,8.09,0,0,1-5,1.72c-.32,0-.64,0-1-.05A11.49,11.49,0,0,0,4.29,16,11.4,11.4,0,0,0,15.77,4.53c0-.17,0-.35,0-.52a8.16,8.16,0,0,0,2-2.09h0a8.66,8.66,0,0,1-2.32.63A4.05,4.05,0,0,0,17.19.31a8.59,8.59,0,0,1-2.56,1,4,4,0,0,0-3-1.28Z" transform="translate(1.91)"/></svg>