<svg id="Layer_1" data-name="Layer 1" xmlns="http://www.w3.org/2000/svg" viewBox="0 0 19.47 16"><path d="M11.6,1.08h0A3.19,3.19,0,0,1,13.79,2a1.08,1.08,0,0,0,.74.29,1.24,1.24,0,0,0,.27,0L15.49,2a1.12,1.12,0,0,0,.18.66,1.84,1.84,0,0,0,.23.25,8.42,8.42,0,0,1-.71.61,1.05,1.05,0,0,0-.44.95,10.25,10.25,0,0,1-4.68,8.82,9.62,9.62,0,0,1-5.31,1.63,11.41,11.41,0,0,1-3.38-.57,8.28,8.28,0,0,0,2.35-.9,1.08,1.08,0,0,0-.29-2,3.57,3.57,0,0,1-1.86-1.09,1.09,1.09,0,0,0,.5-.61,1.08,1.08,0,0,0-.51-1.28A3.24,3.24,0,0,1,.06,6.69a1.09,1.09,0,0,0,.68-.38A1.07,1.07,0,0,0,.78,5,3.47,3.47,0,0,1,.22,3.8a3,3,0,0,1,0-1.46A11.16,11.16,0,0,0,7.27,5.71h.09A1.08,1.08,0,0,0,8.44,4.53,3.12,3.12,0,0,1,9.8,1.64a3.16,3.16,0,0,1,1.8-.56M11.6,0A4.28,4.28,0,0,0,9.19.75,4.22,4.22,0,0,0,7.36,4.63,10,10,0,0,1,.34.85.42.42,0,0,0,0,.69H0A.42.42,0,0,0-.35.9,4,4,0,0,0-.82,4.08,4.46,4.46,0,0,0-.09,5.62a2.87,2.87,0,0,1-.43-.28.41.41,0,0,0-.26-.09.43.43,0,0,0-.33.15.45.45,0,0,0-.1.27A4.39,4.39,0,0,0,1.05,9.43,2.57,2.57,0,0,1,.5,9.31l-.12,0a.42.42,0,0,0-.4.3.39.39,0,0,0,0,.3,4.61,4.61,0,0,0,3.2,2.62,7.37,7.37,0,0,1-3.66,1,7,7,0,0,1-.8-.05h-.06a.41.41,0,0,0-.39.29.42.42,0,0,0,.19.5A12.67,12.67,0,0,0,4.74,16a10.71,10.71,0,0,0,5.93-1.82,11.29,11.29,0,0,0,5.16-9.79,8.18,8.18,0,0,0,1.84-1.92A.44.44,0,0,0,17.62,2a.4.4,0,0,0-.31-.13.48.48,0,0,0-.2,0,3.16,3.16,0,0,1-.54.2A3.88,3.88,0,0,0,17.22.82a.43.43,0,0,0-.3-.52h-.11a.46.46,0,0,0-.25.08,9.1,9.1,0,0,1-2,.79A4.27,4.27,0,0,0,11.6,0Z" transform="translate(1.73 0)"/></svg>